<mxfile host="app.diagrams.net" modified="2021-04-15T03:57:30.543Z" agent="5.0 (X11; Linux x86_64) AppleWebKit/537.36 (KHTML, like Gecko) Chrome/89.0.4389.90 Safari/537.36" etag="T5YsR--qPcU980aKhGiK" version="14.4.9" type="github">
  <diagram id="O8X431FZaKklNM-doUFP" name="Page-1">
    <mxGraphModel dx="1355" dy="801" grid="0" gridSize="10" guides="1" tooltips="1" connect="1" arrows="1" fold="1" page="1" pageScale="1" pageWidth="850" pageHeight="1100" math="0" shadow="0">
      <root>
        <mxCell id="0" />
        <mxCell id="1" parent="0" />
        <mxCell id="h0gkTTEr1Mq3h3OX61ym-1" value="" style="rounded=0;whiteSpace=wrap;html=1;" vertex="1" parent="1">
          <mxGeometry x="80" y="44" width="249" height="307" as="geometry" />
        </mxCell>
        <mxCell id="h0gkTTEr1Mq3h3OX61ym-2" value="" style="rounded=0;whiteSpace=wrap;html=1;" vertex="1" parent="1">
          <mxGeometry x="485" y="48" width="273" height="395" as="geometry" />
        </mxCell>
        <mxCell id="h0gkTTEr1Mq3h3OX61ym-3" value="" style="rounded=1;whiteSpace=wrap;html=1;fillColor=#fff2cc;strokeColor=#d6b656;" vertex="1" parent="1">
          <mxGeometry x="99" y="89" width="216" height="154" as="geometry" />
        </mxCell>
        <mxCell id="h0gkTTEr1Mq3h3OX61ym-4" value="&lt;font color=&quot;#000000&quot;&gt;Metadata Agent&amp;nbsp;&lt;/font&gt;" style="rounded=1;whiteSpace=wrap;html=1;fillColor=#e3c800;strokeColor=#B09500;fontColor=#ffffff;" vertex="1" parent="1">
          <mxGeometry x="96" y="264" width="92" height="59" as="geometry" />
        </mxCell>
        <mxCell id="h0gkTTEr1Mq3h3OX61ym-5" value="Interface&amp;nbsp;" style="rounded=1;whiteSpace=wrap;html=1;fillColor=#60a917;strokeColor=#2D7600;fontColor=#ffffff;" vertex="1" parent="1">
          <mxGeometry x="219" y="261" width="88" height="56" as="geometry" />
        </mxCell>
        <mxCell id="h0gkTTEr1Mq3h3OX61ym-6" value="Linux Network&amp;nbsp;" style="text;html=1;strokeColor=none;fillColor=none;align=center;verticalAlign=middle;whiteSpace=wrap;rounded=0;" vertex="1" parent="1">
          <mxGeometry x="160.5" y="97" width="93" height="20" as="geometry" />
        </mxCell>
        <mxCell id="h0gkTTEr1Mq3h3OX61ym-7" value="" style="rounded=1;whiteSpace=wrap;html=1;fillColor=#e3c800;strokeColor=#B09500;fontColor=#ffffff;" vertex="1" parent="1">
          <mxGeometry x="110" y="126" width="86" height="102" as="geometry" />
        </mxCell>
        <mxCell id="h0gkTTEr1Mq3h3OX61ym-8" value="" style="rounded=1;whiteSpace=wrap;html=1;fillColor=#e3c800;strokeColor=#B09500;fontColor=#ffffff;" vertex="1" parent="1">
          <mxGeometry x="220" y="126" width="86" height="102" as="geometry" />
        </mxCell>
        <mxCell id="h0gkTTEr1Mq3h3OX61ym-9" value="DHCP Agent" style="text;html=1;strokeColor=none;fillColor=none;align=center;verticalAlign=middle;whiteSpace=wrap;rounded=0;" vertex="1" parent="1">
          <mxGeometry x="131" y="134" width="40" height="20" as="geometry" />
        </mxCell>
        <mxCell id="h0gkTTEr1Mq3h3OX61ym-10" value="Linux Bridge Agent&amp;nbsp;" style="text;html=1;strokeColor=none;fillColor=none;align=center;verticalAlign=middle;whiteSpace=wrap;rounded=0;" vertex="1" parent="1">
          <mxGeometry x="223" y="134" width="83" height="20" as="geometry" />
        </mxCell>
        <mxCell id="h0gkTTEr1Mq3h3OX61ym-11" value="&lt;font color=&quot;#000000&quot;&gt;DHCP Namespaces&amp;nbsp;&lt;br&gt;qdhcp&lt;/font&gt;" style="rounded=1;whiteSpace=wrap;html=1;fillColor=#f0a30a;strokeColor=#BD7000;fontColor=#ffffff;" vertex="1" parent="1">
          <mxGeometry x="121" y="178" width="60" height="42" as="geometry" />
        </mxCell>
        <mxCell id="h0gkTTEr1Mq3h3OX61ym-12" value="&lt;font color=&quot;#000000&quot;&gt;Provider Bridge&amp;nbsp;&lt;br&gt;brq&lt;/font&gt;" style="rounded=1;whiteSpace=wrap;html=1;fillColor=#f0a30a;strokeColor=#BD7000;fontColor=#ffffff;" vertex="1" parent="1">
          <mxGeometry x="230" y="178" width="60" height="42" as="geometry" />
        </mxCell>
        <mxCell id="h0gkTTEr1Mq3h3OX61ym-14" value="Instance" style="rounded=1;whiteSpace=wrap;html=1;fillColor=#fff2cc;strokeColor=#d6b656;" vertex="1" parent="1">
          <mxGeometry x="561.5" y="77" width="116.5" height="46" as="geometry" />
        </mxCell>
        <mxCell id="h0gkTTEr1Mq3h3OX61ym-15" value="Controller Node" style="text;html=1;strokeColor=none;fillColor=none;align=center;verticalAlign=middle;whiteSpace=wrap;rounded=0;" vertex="1" parent="1">
          <mxGeometry x="160.5" y="54" width="90" height="20" as="geometry" />
        </mxCell>
        <mxCell id="h0gkTTEr1Mq3h3OX61ym-16" value="Compute Node" style="text;html=1;strokeColor=none;fillColor=none;align=center;verticalAlign=middle;whiteSpace=wrap;rounded=0;" vertex="1" parent="1">
          <mxGeometry x="577.5" y="54" width="88" height="20" as="geometry" />
        </mxCell>
        <mxCell id="h0gkTTEr1Mq3h3OX61ym-17" value="" style="rounded=1;whiteSpace=wrap;html=1;fillColor=#fff2cc;strokeColor=#d6b656;" vertex="1" parent="1">
          <mxGeometry x="529" y="139" width="193" height="206" as="geometry" />
        </mxCell>
        <mxCell id="h0gkTTEr1Mq3h3OX61ym-18" value="Linux Network Utilities" style="text;html=1;strokeColor=none;fillColor=none;align=center;verticalAlign=middle;whiteSpace=wrap;rounded=0;" vertex="1" parent="1">
          <mxGeometry x="584" y="145" width="87" height="20" as="geometry" />
        </mxCell>
        <mxCell id="h0gkTTEr1Mq3h3OX61ym-19" value="" style="rounded=1;whiteSpace=wrap;html=1;fillColor=#e3c800;strokeColor=#B09500;fontColor=#ffffff;" vertex="1" parent="1">
          <mxGeometry x="548" y="176" width="154" height="157" as="geometry" />
        </mxCell>
        <mxCell id="h0gkTTEr1Mq3h3OX61ym-20" value="Linux Bridge Agents" style="text;html=1;strokeColor=none;fillColor=none;align=center;verticalAlign=middle;whiteSpace=wrap;rounded=0;" vertex="1" parent="1">
          <mxGeometry x="592.25" y="180" width="70.5" height="20" as="geometry" />
        </mxCell>
        <mxCell id="h0gkTTEr1Mq3h3OX61ym-21" value="&lt;font color=&quot;#000000&quot;&gt;Security Group&amp;nbsp;&lt;/font&gt;" style="ellipse;shape=cloud;whiteSpace=wrap;html=1;fillColor=#f0a30a;strokeColor=#BD7000;fontColor=#ffffff;" vertex="1" parent="1">
          <mxGeometry x="573.5" y="207" width="103" height="54" as="geometry" />
        </mxCell>
        <mxCell id="h0gkTTEr1Mq3h3OX61ym-22" value="Provider Bridge brq" style="rounded=1;whiteSpace=wrap;html=1;fillColor=#f0a30a;strokeColor=#BD7000;fontColor=#ffffff;" vertex="1" parent="1">
          <mxGeometry x="577.5" y="268" width="99.5" height="42" as="geometry" />
        </mxCell>
        <mxCell id="h0gkTTEr1Mq3h3OX61ym-23" value="Interface" style="rounded=1;whiteSpace=wrap;html=1;fillColor=#60a917;strokeColor=#2D7600;fontColor=#ffffff;" vertex="1" parent="1">
          <mxGeometry x="557" y="361" width="120" height="60" as="geometry" />
        </mxCell>
        <mxCell id="h0gkTTEr1Mq3h3OX61ym-24" value="" style="endArrow=classic;html=1;exitX=0.5;exitY=1;exitDx=0;exitDy=0;" edge="1" parent="1" source="h0gkTTEr1Mq3h3OX61ym-8" target="h0gkTTEr1Mq3h3OX61ym-5">
          <mxGeometry width="50" height="50" relative="1" as="geometry">
            <mxPoint x="399" y="330" as="sourcePoint" />
            <mxPoint x="449" y="280" as="targetPoint" />
          </mxGeometry>
        </mxCell>
        <mxCell id="h0gkTTEr1Mq3h3OX61ym-25" value="" style="endArrow=classic;html=1;exitX=0.5;exitY=1;exitDx=0;exitDy=0;entryX=0.585;entryY=0;entryDx=0;entryDy=0;entryPerimeter=0;" edge="1" parent="1" source="h0gkTTEr1Mq3h3OX61ym-22" target="h0gkTTEr1Mq3h3OX61ym-23">
          <mxGeometry width="50" height="50" relative="1" as="geometry">
            <mxPoint x="399" y="330" as="sourcePoint" />
            <mxPoint x="449" y="280" as="targetPoint" />
          </mxGeometry>
        </mxCell>
        <mxCell id="h0gkTTEr1Mq3h3OX61ym-26" value="Physical Network&amp;nbsp;" style="ellipse;shape=cloud;whiteSpace=wrap;html=1;" vertex="1" parent="1">
          <mxGeometry x="261" y="408" width="201" height="123" as="geometry" />
        </mxCell>
        <mxCell id="h0gkTTEr1Mq3h3OX61ym-27" value="" style="endArrow=classic;html=1;exitX=0.5;exitY=1;exitDx=0;exitDy=0;entryX=0.4;entryY=0.1;entryDx=0;entryDy=0;entryPerimeter=0;" edge="1" parent="1" source="h0gkTTEr1Mq3h3OX61ym-5" target="h0gkTTEr1Mq3h3OX61ym-26">
          <mxGeometry width="50" height="50" relative="1" as="geometry">
            <mxPoint x="399" y="383" as="sourcePoint" />
            <mxPoint x="449" y="333" as="targetPoint" />
          </mxGeometry>
        </mxCell>
        <mxCell id="h0gkTTEr1Mq3h3OX61ym-28" value="" style="endArrow=classic;html=1;exitX=0.5;exitY=1;exitDx=0;exitDy=0;entryX=0.875;entryY=0.5;entryDx=0;entryDy=0;entryPerimeter=0;" edge="1" parent="1" source="h0gkTTEr1Mq3h3OX61ym-23" target="h0gkTTEr1Mq3h3OX61ym-26">
          <mxGeometry width="50" height="50" relative="1" as="geometry">
            <mxPoint x="399" y="383" as="sourcePoint" />
            <mxPoint x="449" y="333" as="targetPoint" />
          </mxGeometry>
        </mxCell>
        <mxCell id="h0gkTTEr1Mq3h3OX61ym-29" value="Internet&amp;nbsp;" style="ellipse;shape=cloud;whiteSpace=wrap;html=1;fillColor=#1ba1e2;strokeColor=#006EAF;fontColor=#ffffff;" vertex="1" parent="1">
          <mxGeometry x="312" y="566" width="120" height="80" as="geometry" />
        </mxCell>
        <mxCell id="h0gkTTEr1Mq3h3OX61ym-30" value="" style="endArrow=classic;html=1;exitX=0.55;exitY=0.95;exitDx=0;exitDy=0;exitPerimeter=0;entryX=0.508;entryY=0.138;entryDx=0;entryDy=0;entryPerimeter=0;" edge="1" parent="1" source="h0gkTTEr1Mq3h3OX61ym-26" target="h0gkTTEr1Mq3h3OX61ym-29">
          <mxGeometry width="50" height="50" relative="1" as="geometry">
            <mxPoint x="399" y="383" as="sourcePoint" />
            <mxPoint x="449" y="333" as="targetPoint" />
          </mxGeometry>
        </mxCell>
      </root>
    </mxGraphModel>
  </diagram>
</mxfile>
